<mxfile host="app.diagrams.net" modified="2023-11-05T14:13:22.516Z" agent="Mozilla/5.0 (Windows NT 10.0; Win64; x64) AppleWebKit/537.36 (KHTML, like Gecko) Chrome/119.0.0.0 Safari/537.36" etag="HJD9yvaHSV0fencdSnmG" version="22.0.8" type="device">
  <diagram name="Page-1" id="yyneaKr7T-qgdiIeeYNJ">
    <mxGraphModel dx="1313" dy="718" grid="1" gridSize="10" guides="1" tooltips="1" connect="1" arrows="1" fold="1" page="1" pageScale="1" pageWidth="850" pageHeight="1100" math="0" shadow="0">
      <root>
        <mxCell id="0" />
        <mxCell id="1" parent="0" />
        <mxCell id="8FpvG4mE7gAJZ0nrqPOY-2" value="" style="rounded=0;whiteSpace=wrap;html=1;fontColor=#000000;labelBackgroundColor=#7EA6E0;" vertex="1" parent="1">
          <mxGeometry x="90" y="150" width="1130" height="370" as="geometry" />
        </mxCell>
        <mxCell id="8FpvG4mE7gAJZ0nrqPOY-11" value="" style="rounded=1;whiteSpace=wrap;html=1;" vertex="1" parent="1">
          <mxGeometry x="150" y="250" width="120" height="190" as="geometry" />
        </mxCell>
        <mxCell id="8FpvG4mE7gAJZ0nrqPOY-6" value="&lt;b&gt;NRY&lt;/b&gt;" style="shape=cylinder3;whiteSpace=wrap;html=1;boundedLbl=1;backgroundOutline=1;size=15;fillColor=#dae8fc;strokeColor=#000000;" vertex="1" parent="1">
          <mxGeometry x="160" y="270" width="100" height="60" as="geometry" />
        </mxCell>
        <mxCell id="8FpvG4mE7gAJZ0nrqPOY-7" value="&lt;b&gt;WRY&lt;/b&gt;" style="shape=cylinder3;whiteSpace=wrap;html=1;boundedLbl=1;backgroundOutline=1;size=15;fillColor=#dae8fc;strokeColor=#000000;" vertex="1" parent="1">
          <mxGeometry x="160" y="350" width="100" height="60" as="geometry" />
        </mxCell>
        <mxCell id="8FpvG4mE7gAJZ0nrqPOY-12" value="" style="shape=singleArrow;whiteSpace=wrap;html=1;" vertex="1" parent="1">
          <mxGeometry x="280" y="310" width="60" height="60" as="geometry" />
        </mxCell>
        <mxCell id="8FpvG4mE7gAJZ0nrqPOY-13" value="" style="rounded=1;whiteSpace=wrap;html=1;rotation=90;" vertex="1" parent="1">
          <mxGeometry x="325" y="295" width="190" height="100" as="geometry" />
        </mxCell>
        <mxCell id="8FpvG4mE7gAJZ0nrqPOY-14" value="Staging" style="text;html=1;strokeColor=none;fillColor=none;align=center;verticalAlign=middle;whiteSpace=wrap;rounded=0;fontStyle=1;fontSize=20;" vertex="1" parent="1">
          <mxGeometry x="390" y="210" width="60" height="30" as="geometry" />
        </mxCell>
        <mxCell id="8FpvG4mE7gAJZ0nrqPOY-15" value="Select&amp;nbsp;" style="text;html=1;strokeColor=none;fillColor=none;align=center;verticalAlign=middle;whiteSpace=wrap;rounded=0;fontStyle=1;fontSize=14;fontColor=#000000;labelBackgroundColor=#7EA6E0;" vertex="1" parent="1">
          <mxGeometry x="390" y="265" width="60" height="30" as="geometry" />
        </mxCell>
        <mxCell id="8FpvG4mE7gAJZ0nrqPOY-16" value="Extact" style="text;html=1;strokeColor=none;fillColor=none;align=center;verticalAlign=middle;whiteSpace=wrap;rounded=0;fontStyle=1;fontSize=14;fontColor=#000000;labelBackgroundColor=#7EA6E0;" vertex="1" parent="1">
          <mxGeometry x="390" y="300" width="60" height="30" as="geometry" />
        </mxCell>
        <mxCell id="8FpvG4mE7gAJZ0nrqPOY-17" value="Transform" style="text;html=1;strokeColor=none;fillColor=none;align=center;verticalAlign=middle;whiteSpace=wrap;rounded=0;fontStyle=1;fontSize=14;fontColor=#000000;labelBackgroundColor=#7EA6E0;" vertex="1" parent="1">
          <mxGeometry x="390" y="330" width="60" height="30" as="geometry" />
        </mxCell>
        <mxCell id="8FpvG4mE7gAJZ0nrqPOY-18" value="Load" style="text;html=1;strokeColor=none;fillColor=none;align=center;verticalAlign=middle;whiteSpace=wrap;rounded=0;fontStyle=1;fontSize=14;fontColor=#000000;labelBackgroundColor=#7EA6E0;" vertex="1" parent="1">
          <mxGeometry x="390" y="360" width="60" height="30" as="geometry" />
        </mxCell>
        <mxCell id="8FpvG4mE7gAJZ0nrqPOY-19" value="Integrate" style="text;html=1;strokeColor=none;fillColor=none;align=center;verticalAlign=middle;whiteSpace=wrap;rounded=0;fontStyle=1;fontSize=14;fontColor=#000000;labelBackgroundColor=#7EA6E0;" vertex="1" parent="1">
          <mxGeometry x="395" y="400" width="60" height="30" as="geometry" />
        </mxCell>
        <mxCell id="8FpvG4mE7gAJZ0nrqPOY-24" value="" style="shape=singleArrow;whiteSpace=wrap;html=1;" vertex="1" parent="1">
          <mxGeometry x="490" y="310" width="80" height="60" as="geometry" />
        </mxCell>
        <mxCell id="8FpvG4mE7gAJZ0nrqPOY-20" value="" style="shape=cylinder3;whiteSpace=wrap;html=1;boundedLbl=1;backgroundOutline=1;size=15;fillColor=#dae8fc;strokeColor=#000000;" vertex="1" parent="1">
          <mxGeometry x="620" y="290" width="110" height="50" as="geometry" />
        </mxCell>
        <mxCell id="8FpvG4mE7gAJZ0nrqPOY-21" value="" style="shape=cylinder3;whiteSpace=wrap;html=1;boundedLbl=1;backgroundOutline=1;size=15;fillColor=#dae8fc;strokeColor=#000000;" vertex="1" parent="1">
          <mxGeometry x="620" y="320" width="110" height="50" as="geometry" />
        </mxCell>
        <mxCell id="8FpvG4mE7gAJZ0nrqPOY-22" value="" style="shape=cylinder3;whiteSpace=wrap;html=1;boundedLbl=1;backgroundOutline=1;size=15;fillColor=#dae8fc;strokeColor=#000000;" vertex="1" parent="1">
          <mxGeometry x="620" y="350" width="110" height="50" as="geometry" />
        </mxCell>
        <mxCell id="8FpvG4mE7gAJZ0nrqPOY-26" value="Data Warehouse" style="text;html=1;strokeColor=none;fillColor=none;align=center;verticalAlign=middle;whiteSpace=wrap;rounded=0;fontStyle=1;fontSize=20;" vertex="1" parent="1">
          <mxGeometry x="630" y="210" width="100" height="30" as="geometry" />
        </mxCell>
        <mxCell id="8FpvG4mE7gAJZ0nrqPOY-27" value="" style="shape=singleArrow;whiteSpace=wrap;html=1;" vertex="1" parent="1">
          <mxGeometry x="760" y="310" width="80" height="60" as="geometry" />
        </mxCell>
        <mxCell id="8FpvG4mE7gAJZ0nrqPOY-35" value="" style="rounded=1;whiteSpace=wrap;html=1;rotation=90;" vertex="1" parent="1">
          <mxGeometry x="822.5" y="287.5" width="215" height="125" as="geometry" />
        </mxCell>
        <mxCell id="8FpvG4mE7gAJZ0nrqPOY-28" value="Clinical" style="rounded=1;whiteSpace=wrap;html=1;fillColor=#dae8fc;strokeColor=#000000;fontStyle=1;fontSize=14;" vertex="1" parent="1">
          <mxGeometry x="880" y="275" width="100" height="30" as="geometry" />
        </mxCell>
        <mxCell id="8FpvG4mE7gAJZ0nrqPOY-29" value="Pharmacy" style="rounded=1;whiteSpace=wrap;html=1;fillColor=#dae8fc;strokeColor=#000000;fontStyle=1;fontSize=14;" vertex="1" parent="1">
          <mxGeometry x="880" y="315" width="100" height="30" as="geometry" />
        </mxCell>
        <mxCell id="8FpvG4mE7gAJZ0nrqPOY-30" value="Finance" style="rounded=1;whiteSpace=wrap;html=1;fillColor=#dae8fc;strokeColor=#000000;fontStyle=1;fontSize=14;" vertex="1" parent="1">
          <mxGeometry x="880" y="360" width="100" height="30" as="geometry" />
        </mxCell>
        <mxCell id="8FpvG4mE7gAJZ0nrqPOY-31" value="Supply" style="rounded=1;whiteSpace=wrap;html=1;fillColor=#dae8fc;strokeColor=#000000;fontStyle=1;fontSize=14;" vertex="1" parent="1">
          <mxGeometry x="880" y="405" width="100" height="30" as="geometry" />
        </mxCell>
        <mxCell id="8FpvG4mE7gAJZ0nrqPOY-34" value="Data Mart" style="text;html=1;strokeColor=none;fillColor=none;align=center;verticalAlign=middle;whiteSpace=wrap;rounded=0;fontStyle=1;fontSize=20;" vertex="1" parent="1">
          <mxGeometry x="880" y="200" width="100" height="30" as="geometry" />
        </mxCell>
        <mxCell id="8FpvG4mE7gAJZ0nrqPOY-37" value="&lt;b&gt;&lt;font style=&quot;font-size: 15px;&quot;&gt;Analysis&lt;/font&gt;&lt;/b&gt;" style="rounded=1;whiteSpace=wrap;html=1;rotation=0;fillColor=#dae8fc;strokeColor=#000000;" vertex="1" parent="1">
          <mxGeometry x="1090" y="280" width="78.75" height="120" as="geometry" />
        </mxCell>
        <mxCell id="8FpvG4mE7gAJZ0nrqPOY-38" value="" style="shape=singleArrow;whiteSpace=wrap;html=1;" vertex="1" parent="1">
          <mxGeometry x="1000" y="310" width="80" height="60" as="geometry" />
        </mxCell>
      </root>
    </mxGraphModel>
  </diagram>
</mxfile>
